<svg xmlns="http://www.w3.org/2000/svg" viewBox="0 0 40 40"><defs><style>.cls-1{fill:#999;}</style></defs><title>atm</title><g id="圖層_2" data-name="圖層 2"><g id="圖層_1-2" data-name="圖層 1"><path class="cls-1" d="M20,1A19,19,0,1,1,1,20,19,19,0,0,1,20,1m0-1A20,20,0,1,0,40,20,20,20,0,0,0,20,0Z"/><path class="cls-1" d="M9.22,15.57l-3.46,9H8.25L8.87,23h3.22l.58,1.56h2.49l-3.38-9Zm.29,5.65,1-2.87h0l1,2.87Z"/><polygon class="cls-1" points="15.47 17.55 17.4 17.55 17.4 24.57 19.74 24.57 19.74 17.55 21.67 17.55 21.67 15.57 15.47 15.57 15.47 17.55"/><polygon class="cls-1" points="32.41 15.57 30.09 15.57 28.15 20.38 26.33 15.57 24.03 15.57 22.51 24.57 24.83 24.57 25.58 19.39 25.61 19.39 27.67 24.57 28.59 24.57 30.75 19.39 30.77 19.39 31.43 24.57 33.77 24.57 32.41 15.57"/></g></g></svg>