<svg xmlns="http://www.w3.org/2000/svg" viewBox="0 0 22 29"><defs><style>.cls-1{fill:#323232;}</style></defs><title>cart</title><g id="圖層_2" data-name="圖層 2"><g id="圖層_1-2" data-name="圖層 1"><path class="cls-1" d="M21.48,29H.52A.52.52,0,0,1,0,28.48V12.76a.52.52,0,0,1,.52-.52h21a.52.52,0,0,1,.52.52V28.48A.52.52,0,0,1,21.48,29ZM1,28H21V13.29H1Z"/><path class="cls-1" d="M19.71,10.39a.52.52,0,0,1-.42-.21L13.48,2.43a3,3,0,0,0-5,0L2.71,10.18a.52.52,0,0,1-.84-.63L7.68,1.81A4.15,4.15,0,0,1,11,0a4.15,4.15,0,0,1,3.32,1.81l5.81,7.75a.52.52,0,0,1-.1.73A.51.51,0,0,1,19.71,10.39Z"/></g></g></svg>