<svg xmlns="http://www.w3.org/2000/svg" viewBox="0 0 40 40"><defs><style>.cls-1{fill:#999;}</style></defs><title>line</title><g id="圖層_2" data-name="圖層 2"><g id="圖層_1-2" data-name="圖層 1"><path class="cls-1" d="M20,1A19,19,0,1,1,1,20,19,19,0,0,1,20,1m0-1A20,20,0,1,0,40,20,20,20,0,0,0,20,0Z"/><path class="cls-1" d="M12.41,24.59A.41.41,0,0,1,12,25H6.1a.41.41,0,0,1-.28-.12h0a.41.41,0,0,1-.12-.28h0V15.41A.41.41,0,0,1,6.1,15H7.58a.41.41,0,0,1,.41.41V22.7h4a.41.41,0,0,1,.41.41Z"/><rect class="cls-1" x="13.68" y="15" width="2.3" height="10" rx="0.41" ry="0.41"/><path class="cls-1" d="M26.15,24.59a.41.41,0,0,1-.41.41H24a.43.43,0,0,1-.1-.1l-4.21-5.69v5.45a.41.41,0,0,1-.41.41H17.82a.41.41,0,0,1-.41-.41V15.41a.41.41,0,0,1,.41-.41h1.7l0,0h0l0,0h0l0,0h0l0,0,4.21,5.68V15.41a.41.41,0,0,1,.41-.41h1.48a.41.41,0,0,1,.41.41Z"/><path class="cls-1" d="M33.9,18.85a.41.41,0,0,1,.41.41v1.48a.41.41,0,0,1-.41.41h-4V22.7h4a.41.41,0,0,1,.41.41v1.48a.41.41,0,0,1-.41.41H28a.41.41,0,0,1-.28-.12h0a.41.41,0,0,1-.11-.28h0V15.41h0a.41.41,0,0,1,.11-.28h0A.41.41,0,0,1,28,15h5.9a.41.41,0,0,1,.41.41v1.48a.41.41,0,0,1-.41.41h-4v1.55Z"/></g></g></svg>