<svg xmlns="http://www.w3.org/2000/svg" viewBox="0 0 19.95 20"><defs><style>.cls-1{fill-rule:evenodd;}</style></defs><title>list</title><g id="圖層_2" data-name="圖層 2"><g id="圖層_1-2" data-name="圖層 1"><g id="tag"><path class="cls-1" d="M19.45,10.09,9.28,0H0L0,9.25,10,19.5a1.68,1.68,0,0,0,2.37,0l7.05-7.05A1.68,1.68,0,0,0,19.45,10.09Zm-17-5.91A1.66,1.66,0,1,1,4.14,5.85,1.66,1.66,0,0,1,2.48,4.18Zm9,11.6L5.06,9.31l.59-.59,6.47,6.47ZM13.29,14,6.82,7.55,7.41,7l6.47,6.47ZM15,12.25,8.58,5.79l.59-.59,6.47,6.47Z"/></g></g></g></svg>