<svg xmlns="http://www.w3.org/2000/svg" viewBox="0 0 19.69 20"><title>list_5</title><g id="圖層_2" data-name="圖層 2"><g id="圖層_1-2" data-name="圖層 1"><g id="sale"><path d="M8.07,10.4h.79L8.46,9.14Zm10.6-1A3.09,3.09,0,0,0,16.4,4.31a3.09,3.09,0,0,0-4.68-3,3.09,3.09,0,0,0-5.4.55A3.09,3.09,0,0,0,2.25,5.5a3.09,3.09,0,0,0-1.19,5.3,3.09,3.09,0,0,0,2.13,5A3.09,3.09,0,0,0,7.84,18.6a3.09,3.09,0,0,0,5.41-.44,3.09,3.09,0,0,0,4.13-3.52,3.09,3.09,0,0,0,1.29-5.27ZM6.16,11.61A1.94,1.94,0,0,1,4.95,12a3.17,3.17,0,0,1-.78-.08,3.8,3.8,0,0,1-.62-.21v-.91h.09a2.12,2.12,0,0,0,.64.38,1.9,1.9,0,0,0,.68.13l.22,0a.77.77,0,0,0,.22-.06.46.46,0,0,0,.17-.12.3.3,0,0,0,.07-.21.29.29,0,0,0-.11-.23.73.73,0,0,0-.27-.13l-.42-.1-.42-.11a1.3,1.3,0,0,1-.64-.42,1.1,1.1,0,0,1-.19-.67A1,1,0,0,1,4,8.31,1.88,1.88,0,0,1,5.17,8,3.36,3.36,0,0,1,5.85,8a3,3,0,0,1,.61.19v.88H6.38a1.91,1.91,0,0,0-.52-.31,1.66,1.66,0,0,0-.63-.13L5,8.69l-.21.07a.43.43,0,0,0-.16.12.27.27,0,0,0-.07.18.29.29,0,0,0,.1.23,1.08,1.08,0,0,0,.4.16l.37.08.38.11a1.31,1.31,0,0,1,.59.39,1,1,0,0,1,.2.64A1.11,1.11,0,0,1,6.16,11.61Zm3.14.28-.24-.79H7.86l-.24.79h-1L8,8H9l1.3,3.85Zm4,0H10.7V8h1v3.11h1.6Zm3-3.11H14.64v.67h1.51v.73H14.64v1h1.64v.73h-2.6V8h2.6Z"/></g></g></g></svg>