<svg xmlns="http://www.w3.org/2000/svg" viewBox="0 0 20 15.32"><defs><style>.cls-1{fill-rule:evenodd;}</style></defs><title>list_3</title><g id="圖層_2" data-name="圖層 2"><g id="圖層_1-2" data-name="圖層 1"><path id="delivery" class="cls-1" d="M19.64,11.43c.25-.25-3,3.48-3,3.48H10.52c-1.46,0-4.2-1.88-7.23.41C3.07,15.06,0,11.83,0,11.83l5.88-3.6c2.27-1.11,3.93.64,4.54.64h4.76a1,1,0,0,1,0,2H11.23a.86.86,0,0,0,.84.81H15.9s1.6-1.6,1.85-1.87c.63-.83,1.14-.07,1.14-.07S20.77,9.64,19.64,11.43ZM17.17,1.21H13.95V4.84H9.51V1.21H6.29V7a3.74,3.74,0,0,0-1.21.18V0H18.38V8.48H17.17Z"/></g></g></svg>