<svg xmlns="http://www.w3.org/2000/svg" viewBox="0 0 20 18.34"><defs><style>.cls-1{fill-rule:evenodd;}</style></defs><title>list_8</title><g id="圖層_2" data-name="圖層 2"><g id="圖層_1-2" data-name="圖層 1"><path id="support" class="cls-1" d="M17.58,11.33a4.07,4.07,0,0,1-1.05,2.14c.57,2.65,1.23,3.29,1.86,3.44-.15.26-3.54,1.26-5-.68A4.63,4.63,0,0,1,10,18.34a4.52,4.52,0,0,1-3.17-1.86c-1.57,1.59-4.8.43-4.8.43s1.43-.67,2-6.25A11.86,11.86,0,0,1,3.74,8C3.74,3.44,7,1.72,10,1.72S16.22,3.44,16.22,8A12,12,0,0,1,16,10.22c.1.83.2,1.54.31,2.17a4.5,4.5,0,0,0,.55-1.19,2.24,2.24,0,0,1-.36-.16,7.52,7.52,0,0,0,.09-5.44,2.07,2.07,0,0,1,.48-.18C16.28,2.74,13.43.74,10,.74h0A8.05,8.05,0,0,0,5.47,2.08l0,0L5,2.41,5,2.45l-.36.31-.08.08-.3.3-.1.12-.24.29-.12.17L3.58,4l-.13.23-.13.23c-.05.1-.09.2-.14.3l-.08.18c-.07.16-.12.33-.17.5a2.08,2.08,0,0,1,.48.18A7.53,7.53,0,0,0,3.49,11a2.07,2.07,0,0,1-1,.29A2.75,2.75,0,0,1,0,8.35,2.87,2.87,0,0,1,2,5.42C2.85,2.32,6.1,0,10,0h0c3.89,0,7.13,2.32,8,5.42a2.87,2.87,0,0,1,2,2.93A2.76,2.76,0,0,1,17.58,11.33Zm-2.21-2.6-.3-.09-.07,0-.33-.13,0,0-.38-.19-.1-.06L13.79,8l0,0a5.07,5.07,0,0,1-.4-.33l-.1-.1a4.82,4.82,0,0,1-.38-.4l0,0a5,5,0,0,1-.36-.51l-.08-.14a4.94,4.94,0,0,1-.31-.62C11,9,8.64,9.13,8.64,9.13A5.72,5.72,0,0,0,9.5,5.29c-.09.19-.18.38-.28.56L9.12,6l-.23.37-.11.17-.26.36L8.43,7a9.9,9.9,0,0,1-.77.87l-.1.1-.3.29-.11.1-.31.27-.08.07L6.36,9l0,0L6,9.29l-.12.08-.23.15-.13.08-.18.11L5.2,9.8l-.11.06L4.75,10c.64,3.54,3,7.18,5.29,7.18a4.21,4.21,0,0,0,3.05-2.05,10.44,10.44,0,0,1-1.31.17,1,1,0,1,1,0-.77,7.59,7.59,0,0,0,1.86-.31,12.68,12.68,0,0,0,1.68-5.53Z"/></g></g></svg>