<svg xmlns="http://www.w3.org/2000/svg" viewBox="0 0 19.46 20"><title>list_6</title><g id="圖層_2" data-name="圖層 2"><g id="圖層_1-2" data-name="圖層 1"><g id="discount"><path d="M19.46,8.23l-2-1.54.25-2.49-2.43-.71-.93-2.31-2.6.59L10.07,0,8,1.54,5.68.85l-1,2.35-2.37.2L2.1,6.19l-2,1.6,1,1.82L0,11.82l1.9,1.58-.24,2.44,2.48.72L5,18.8l2.39-.49L9.23,20l2-1.56,2.5.66.83-2,2.53-.33.1-2.83,2-1.14-1-2.64ZM6.57,12a2.12,2.12,0,0,1-1.75-.16,2.65,2.65,0,0,1-1-1.64,2.63,2.63,0,0,1,.07-1.93,2.12,2.12,0,0,1,1.42-1A2.07,2.07,0,0,1,7,7.44,2.66,2.66,0,0,1,8,9.06,2.68,2.68,0,0,1,8,11,2.08,2.08,0,0,1,6.57,12Zm1.5,2.46L9.93,6.19l1.29-.35L9.36,14.12ZM15.43,12A2.09,2.09,0,0,1,14,13a2.12,2.12,0,0,1-1.75-.16,2.65,2.65,0,0,1-1-1.64,2.63,2.63,0,0,1,.07-1.93,2.12,2.12,0,0,1,1.42-1,2.07,2.07,0,0,1,1.74.16,2.67,2.67,0,0,1,1,1.62A2.68,2.68,0,0,1,15.43,12ZM14.1,10.47a5.59,5.59,0,0,0-.18-.55,1.41,1.41,0,0,0-.22-.4.58.58,0,0,0-.29-.2.71.71,0,0,0-.38,0,.69.69,0,0,0-.34.18.63.63,0,0,0-.14.32,1.43,1.43,0,0,0,0,.45,5.64,5.64,0,0,0,.12.57c.07.24.12.43.17.57a1.34,1.34,0,0,0,.22.38.57.57,0,0,0,.29.2.7.7,0,0,0,.39,0,.69.69,0,0,0,.34-.18.59.59,0,0,0,.15-.32,1.53,1.53,0,0,0,0-.43A4.91,4.91,0,0,0,14.1,10.47Zm-7.45-1a5.54,5.54,0,0,0-.18-.55,1.43,1.43,0,0,0-.22-.4A.6.6,0,0,0,6,8.3a.72.72,0,0,0-.38,0,.7.7,0,0,0-.34.18.63.63,0,0,0-.15.32,1.44,1.44,0,0,0,0,.45,5.51,5.51,0,0,0,.12.57c.06.24.12.43.17.57a1.29,1.29,0,0,0,.22.38.58.58,0,0,0,.29.2.71.71,0,0,0,.39,0,.69.69,0,0,0,.34-.19.6.6,0,0,0,.15-.32,1.54,1.54,0,0,0,0-.43A4.66,4.66,0,0,0,6.65,9.45Z"/></g></g></g></svg>