<svg xmlns="http://www.w3.org/2000/svg" viewBox="0 0 17.37 20"><defs><style>.cls-1{fill-rule:evenodd;}</style></defs><title>list_7</title><g id="圖層_2" data-name="圖層 2"><g id="圖層_1-2" data-name="圖層 1"><path id="gift" class="cls-1" d="M15.91,20H9.68V13.57h7.69v5A1.46,1.46,0,0,1,15.91,20ZM9.68,6.05a2.51,2.51,0,0,1-.89-.36l0,0,0,0a1.38,1.38,0,0,1-.63.36V12H0V6.87A1.46,1.46,0,0,1,1.46,5.41H4.84a5.36,5.36,0,0,1-1-.74C2.45,3.41,2.21,1.59,3.26.61A2.44,2.44,0,0,1,4.95,0,4,4,0,0,1,7.62,1.12,5.32,5.32,0,0,1,8.75,2.67,5.34,5.34,0,0,1,9.88,1.12,4,4,0,0,1,12.55,0a2.44,2.44,0,0,1,1.69.61c1.05,1,.81,2.8-.55,4.06a5.33,5.33,0,0,1-1,.74h3.25a1.46,1.46,0,0,1,1.46,1.46V12H9.68ZM6.61,2.21a2.55,2.55,0,0,0-1.66-.72,1,1,0,0,0-.67.21.59.59,0,0,0-.18.48,2.06,2.06,0,0,0,.73,1.4A4.2,4.2,0,0,0,7.33,4.65a.77.77,0,0,0,.37-.06A3.2,3.2,0,0,0,6.61,2.21ZM9.82,4.62h0a1.44,1.44,0,0,0,.35,0,4.2,4.2,0,0,0,2.51-1.07,2.06,2.06,0,0,0,.73-1.4.59.59,0,0,0-.18-.48,1,1,0,0,0-.67-.21,2.55,2.55,0,0,0-1.66.72A3.1,3.1,0,0,0,9.82,4.62ZM8.09,20H1.46A1.46,1.46,0,0,1,0,18.54v-5H8.09Z"/></g></g></svg>