<svg xmlns="http://www.w3.org/2000/svg" viewBox="0 0 20 20"><title>list_4</title><g id="圖層_2" data-name="圖層 2"><g id="圖層_1-2" data-name="圖層 1"><g id="new"><path d="M17.95,9.19,19.19,5,15,3.8,13,0,9.19,2.05,5,.81,3.8,5,0,7l2.05,3.8L.81,15,5,16.2,7,20l3.8-2.05L15,19.19,16.2,15,20,13ZM7,12.65H6L4.45,9.82v2.83H3.52V8.59H4.77l1.3,2.33V8.59H7Zm3.65-3.29H8.92v.71h1.59v.77H8.92v1h1.73v.78H7.91V8.59h2.75Zm5.05,3.29H14.59l-.65-2.51-.63,2.51H12.19l-1-4.06h1.06l.56,2.72.68-2.72h1l.65,2.72.59-2.72h1Z"/></g></g></g></svg>