<svg xmlns="http://www.w3.org/2000/svg" viewBox="0 0 20 15.45"><defs><style>.cls-1{fill-rule:evenodd;}</style></defs><title>list_1</title><g id="圖層_2" data-name="圖層 2"><g id="圖層_1-2" data-name="圖層 1"><path id="cuopon" class="cls-1" d="M17.46,12a2.54,2.54,0,0,1-2.23-3.75c-.94.5-1.54,1.68-2.44,1.85C11.54,10.32,0,12.33,0,12.33A4.58,4.58,0,0,1,4,8.26c-.28,0,4.24-.48,5-.61A6.18,6.18,0,0,0,12.89,5a2.55,2.55,0,1,1,1.83-.32L13,6.71s-.74,1.17.79.79a8.52,8.52,0,0,1,3.31-.56l.32,0a2.54,2.54,0,0,1,0,5.08ZM11.26,7.94a.78.78,0,1,0,.78.78A.78.78,0,0,0,11.26,7.94ZM13.39,4a1.46,1.46,0,1,0-1.46-1.46A1.46,1.46,0,0,0,13.39,4Zm4.07,4a1.46,1.46,0,1,0,1.46,1.46A1.46,1.46,0,0,0,17.46,8ZM3.28,14.23l-.43,1.22H.41l.43-1.22Zm3.66,0-.43,1.22H4.07l.43-1.22Zm.43.81.28-.52.1-.29H7.8l1.42-2.67L12.68,11l-1.42,3.25h2.19L13,15.45H7.32L7.46,15Zm9.73-.81-.43,1.22H14.23l.43-1.22Z"/></g></g></svg>