<svg xmlns="http://www.w3.org/2000/svg" viewBox="0 0 168 62"><defs><style>.cls-1{fill:#fff;}</style></defs><title>logo</title><g id="圖層_2" data-name="圖層 2"><g id="圖層_1-2" data-name="圖層 1"><path class="cls-1" d="M93.51,2.06H67.15a2.48,2.48,0,0,0-2.48,2.48V59.48A2.48,2.48,0,0,0,67.15,62H93.51A2.48,2.48,0,0,0,96,59.48V4.54A2.48,2.48,0,0,0,93.51,2.06ZM90.34,31.47h-17v2.48h17V57.76a1.71,1.71,0,0,1-1.71,1.71H72a1.71,1.71,0,0,1-1.71-1.71V6.25A1.71,1.71,0,0,1,72,4.54h16.6a1.71,1.71,0,0,1,1.71,1.71Z"/><path class="cls-1" d="M28.83,2.06H2.48A2.48,2.48,0,0,0,0,4.54V59.48A2.48,2.48,0,0,0,2.48,62H28.83a2.48,2.48,0,0,0,2.48-2.48V4.54A2.48,2.48,0,0,0,28.83,2.06ZM25.67,31.47h-17v2.48h17V57.76A1.71,1.71,0,0,1,24,59.48H7.35a1.71,1.71,0,0,1-1.71-1.71V6.25A1.71,1.71,0,0,1,7.35,4.54H24a1.71,1.71,0,0,1,1.71,1.71Z"/><path class="cls-1" d="M135.82,50.36a2.91,2.91,0,0,0-2.73-1.91h-2.57a2.91,2.91,0,0,0-2.73,1.91l-3.65,10.5a.85.85,0,0,0,.81,1.14h2.31a1.71,1.71,0,0,0,1.65-1.26l2.52-9.87a.4.4,0,0,1,.78,0l2.52,9.87A1.71,1.71,0,0,0,136.35,62h2.31a.86.86,0,0,0,.81-1.14Z"/><path class="cls-1" d="M127.63,46.21h8.15a2.48,2.48,0,0,0,2.48-2.48V4.54a2.48,2.48,0,0,0-2.48-2.48h-8.15a2.48,2.48,0,0,0-2.48,2.48V43.74A2.48,2.48,0,0,0,127.63,46.21Zm2.55-41a.64.64,0,0,1,.64-.64h1.78a.64.64,0,0,1,.64.64V15.69h-1.41v2.48h1.41V29.31h-1.41v2.48h1.41V43.74h-3.06Z"/><path class="cls-1" d="M167.14,47H164.7V31.94a2.35,2.35,0,0,0-2.35-2.35h-6.18V25.25h10.65a1.07,1.07,0,0,0,1.07-1.07v-.34a1.07,1.07,0,0,0-1.07-1.07h-6.46V16.52h5.72a1.07,1.07,0,0,0,1.07-1.07v-.34A1.07,1.07,0,0,0,166.09,14h-5.72V8.4h5.9a1.07,1.07,0,0,0,1.07-1.07V7a1.07,1.07,0,0,0-1.07-1.07h-5.9V1.24A1.24,1.24,0,0,0,159.13,0h-2.27a1.24,1.24,0,0,0-1.24,1.24V5.92h-4.11V1.24A1.24,1.24,0,0,0,150.27,0H148a1.24,1.24,0,0,0-1.24,1.24V5.92h-4.53A1.07,1.07,0,0,0,141.16,7v.34a1.07,1.07,0,0,0,1.07,1.07h4.53V14h-4.48a1.07,1.07,0,0,0-1.07,1.07v.34a1.07,1.07,0,0,0,1.07,1.07h4.48v6.26h-5.09a1.07,1.07,0,0,0-1.07,1.07v.34a1.07,1.07,0,0,0,1.07,1.07h9.55v4.34H145a2.35,2.35,0,0,0-2.35,2.35V47h-2.81a.86.86,0,0,0-.86.86v.77a.86.86,0,0,0,.86.86h2.81V60.69a1.24,1.24,0,0,0,1.24,1.24h2.55a1.24,1.24,0,0,0,1.24-1.24V49.48h12v8.74a1.24,1.24,0,0,1-1.24,1.24H155.5a.86.86,0,0,0-.86.86v.77a.86.86,0,0,0,.86.86h6.73a2.48,2.48,0,0,0,2.48-2.48v-10h2.44a.86.86,0,0,0,.86-.86v-.77A.86.86,0,0,0,167.14,47Zm-15.92-8.74h-1.9v2.48h1.9V47h-3.56V32.07h3.56Zm4.4-15.48h-4.11V16.52h4.11Zm0-8.74h-4.11V8.4h4.11Zm4.06,33h-3.51V32.07h3.51v6.19h-1.85v2.48h1.85Z"/></g></g></svg>