<svg xmlns="http://www.w3.org/2000/svg" viewBox="0 0 153.13 25"><defs><style>.cls-1{fill:#fff;}</style></defs><title>logo</title><g id="圖層_2" data-name="圖層 2"><g id="圖層_1-2" data-name="圖層 1"><path class="cls-1" d="M48.29,3.16A14.72,14.72,0,0,0,42.4,1.7c-2.57,0-4.31,1.39-4.31,3.57,0,5.55,11.77,4.83,11.77,12.74,0,4.92-4.07,6.88-8.67,6.88a27.64,27.64,0,0,1-5.71-.71V21.71a15.31,15.31,0,0,0,6.21,1.57c3.14,0,5-1.5,5-4.53,0-5.92-11.45-5-11.45-12.63,0-3.89,3-6,7.78-6a26.11,26.11,0,0,1,5.28.57Z"/><polygon class="cls-1" points="153.13 0 136.21 0 136.21 1.93 143.12 1.93 143.12 24.88 146.22 24.88 146.22 1.93 153.13 1.93 153.13 0"/><polygon class="cls-1" points="88.83 24.88 76.53 24.88 76.53 0 79.64 0 79.64 22.96 88.83 22.96 88.83 24.88"/><path class="cls-1" d="M0,12.5C0,4.87,3.18.09,10.27.09s10.2,5.31,10.2,12.41c0,7.56-3.14,12.38-10.2,12.38C2.93,24.88,0,19.6,0,12.5Zm17,0c0-4.49-1.23-11-6.76-11s-6.83,6.1-6.83,11c0,4.46,1.23,11,6.83,11C15.66,23.49,17,17.39,17,12.5Z"/><path class="cls-1" d="M127.69,18.51c-.78,2.8-2.29,5-5,5-4.74,0-5.78-6.53-5.78-11,0-4.92,1.16-11,5.78-11,2.62,0,4.1,2,4.89,4.63l2.4-.92c-1.25-2.85-3.27-5.1-7.29-5.1-6,0-8.7,4.78-8.7,12.41,0,7.1,2.48,12.38,8.7,12.38,4.19,0,6.46-2.42,7.69-5.77Z"/><rect class="cls-1" x="24.97" y="11.41" width="6.83" height="2"/><rect class="cls-1" x="99.28" y="10.96" width="6.03" height="1.92"/><polygon class="cls-1" points="106.48 0.04 97.91 0.04 95.79 0.04 94.81 0.04 94.81 25 106.48 25 106.48 23.07 97.91 23.07 97.91 16.15 97.91 12.88 97.91 10.96 97.91 8.23 97.91 1.96 106.48 1.96 106.48 0.04"/><rect class="cls-1" x="61.84" y="10.96" width="6.02" height="1.92"/><polygon class="cls-1" points="69.03 0.04 60.46 0.04 58.34 0.04 57.36 0.04 57.36 25 69.03 25 69.03 23.07 60.46 23.07 60.46 12.88 60.48 12.88 60.48 10.96 60.46 10.96 60.46 1.96 69.03 1.96 69.03 0.04"/></g></g></svg>