<?xml version="1.0" encoding="utf-8"?>
<!-- Generator: Adobe Illustrator 21.1.0, SVG Export Plug-In . SVG Version: 6.00 Build 0)  -->
<svg version="1.1" id="圖層_1" xmlns="http://www.w3.org/2000/svg" xmlns:xlink="http://www.w3.org/1999/xlink" x="0px" y="0px"
	 viewBox="0 0 114.3 103" style="enable-background:new 0 0 114.3 103;" xml:space="preserve">
<title>logout</title>
<g id="圖層_2">
	<g id="圖層_1-2">
		<path d="M84.5,0h-54c-1.1,0-2,0.9-2,2v27c0,1.1,0.9,2,2,2s2-0.9,2-2V4h50v95h-50V74c0-1.1-0.9-2-2-2s-2,0.9-2,2v27
			c0,1.1,0.9,2,2,2h54c1.1,0,2-0.9,2-2V2C86.5,0.9,85.6,0,84.5,0z"/>
		<polygon points="44.5,60 44.5,43 17.5,43 17.5,18.7 0,51.5 17.5,84.3 17.5,60 		"/>
	</g>
</g>
</svg>
