<svg xmlns="http://www.w3.org/2000/svg" viewBox="0 0 76 102.07"><defs><style>.cls-1{fill:#fff;}</style></defs><title>m-cart</title><g id="圖層_2" data-name="圖層 2"><g id="圖層_1-2" data-name="圖層 1"><path class="cls-1" d="M74,102.07H2a2,2,0,0,1-2-2v-54a2,2,0,0,1,2-2H74a2,2,0,0,1,2,2v54A2,2,0,0,1,74,102.07Zm-70-4H72v-50H4Z"/><path class="cls-1" d="M63.59,39.48a2,2,0,0,1-1.72-1L43.62,8c-1.55-2.6-3.52-4-5.54-4s-4,1.43-5.54,4L14.3,38.51a2,2,0,0,1-3.43-2.05L29.12,6c2.31-3.85,5.49-6,9-6s6.66,2.12,9,6L65.3,36.46a2,2,0,0,1-1.71,3Z"/></g></g></svg>