<svg xmlns="http://www.w3.org/2000/svg" viewBox="0 0 23 29.95"><defs><style>.cls-1{fill:#fff;}</style></defs><title>m-cart</title><g id="圖層_2" data-name="圖層 2"><g id="圖層_2-2" data-name="圖層 2"><path class="cls-1" d="M23,13a1,1,0,0,0-1-1H1a1,1,0,0,0-1,1v16a1,1,0,0,0,1,1H22a1,1,0,0,0,1-1ZM21,28H2V14H21Z"/><path class="cls-1" d="M3.24,10.05a1,1,0,0,0,1.42-.2l5-6.71a2.5,2.5,0,0,1,2-1.12,2.5,2.5,0,0,1,2,1.12l5,6.71a1,1,0,1,0,1.62-1.21l-5-6.7A4.53,4.53,0,0,0,11.64,0,4.53,4.53,0,0,0,8.06,1.93L3,8.63A1,1,0,0,0,3.24,10.05Z"/></g></g></svg>