<svg xmlns="http://www.w3.org/2000/svg" viewBox="0 0 22.61 30.21"><defs><style>.cls-1{fill:#fff;}</style></defs><title>m-member</title><g id="圖層_2" data-name="圖層 2"><g id="圖層_2-2" data-name="圖層 2"><path class="cls-1" d="M11.3,12.09a6,6,0,1,0-6-6A6,6,0,0,0,11.3,12.09ZM11.3,2a4,4,0,1,1-4,4A4,4,0,0,1,11.3,2Z"/><path class="cls-1" d="M11.3,13.74c-6.23,0-11.3,7-11.3,15.32a1.14,1.14,0,0,0,1,1.15H21.61a1.14,1.14,0,0,0,1-1.15C22.61,20.69,17.54,13.74,11.3,13.74Zm0,2.31c4.89,0,8.91,5.16,9.27,12.16H2C2.4,21.21,6.41,16,11.3,16Z"/><path class="cls-1" d="M5.7,23l2.86,3.31a1,1,0,0,0,1.52,0l5.08-5.87a1,1,0,0,0-1.52-1.31l-4.32,5-2.1-2.43A1,1,0,1,0,5.7,23Z"/></g></g></svg>