<svg xmlns="http://www.w3.org/2000/svg" viewBox="0 0 76 103"><defs><style>.cls-1{fill:#fff;}</style></defs><title>m-member-1</title><g id="圖層_2" data-name="圖層 2"><g id="圖層_1-2" data-name="圖層 1"><path class="cls-1" d="M74,103H2a2,2,0,0,1-2-2V89.86C0,66,17,46.64,38,46.64S76,66,76,89.86V101A2,2,0,0,1,74,103ZM4,99H72V89.86c0-21.63-15.25-39.22-34-39.22S4,68.23,4,89.86Z"/><path class="cls-1" d="M38,4A17.13,17.13,0,1,1,20.88,21.13,17.14,17.14,0,0,1,38,4m0-4A21.13,21.13,0,1,0,59.13,21.13,21.13,21.13,0,0,0,38,0Z"/></g></g></svg>