<svg xmlns="http://www.w3.org/2000/svg" viewBox="0 0 40 40"><defs><style>.cls-1{fill:#999;}</style></defs><title>mail</title><g id="圖層_2" data-name="圖層 2"><g id="圖層_1-2" data-name="圖層 1"><path class="cls-1" d="M20,1A19,19,0,1,1,1,20,19,19,0,0,1,20,1m0-1A20,20,0,1,0,40,20,20,20,0,0,0,20,0Z"/><path class="cls-1" d="M31,14.49c0-.82-1.08-1.49-1.79-1.49H10.79C10.08,13,9,13.67,9,14.49v11C9,26.34,10.08,27,10.79,27H29.21c.71,0,1.79-.66,1.79-1.49Zm-3.35,2.05-7.29,5.83a.64.64,0,0,1-.81,0l-7.29-5.83a.65.65,0,0,1,.81-1L20,21l6.89-5.51a.65.65,0,1,1,.81,1Z"/></g></g></svg>