<svg xmlns="http://www.w3.org/2000/svg" viewBox="0 0 22.61 30.05"><defs><style>.cls-1{fill:#323232;}</style></defs><title>member</title><g id="圖層_2" data-name="圖層 2"><g id="圖層_1-2" data-name="圖層 1"><path class="cls-1" d="M11.3,12.09a6,6,0,1,0-6-6A6,6,0,0,0,11.3,12.09ZM11.3,2a4,4,0,1,1-4,4A4,4,0,0,1,11.3,2Z"/><path class="cls-1" d="M11.3,13.74C5.07,13.74,0,20.61,0,29a1.07,1.07,0,0,0,1,1.08H21.61a1.07,1.07,0,0,0,1-1.08C22.61,20.61,17.54,13.74,11.3,13.74Zm0,2.15c4.89,0,8.91,5.16,9.27,12.16H2C2.4,21.05,6.41,15.89,11.3,15.89Z"/><path class="cls-1" d="M5.7,23l2.86,3.31a1,1,0,0,0,1.52,0l5.08-5.87a1,1,0,1,0-1.52-1.31l-4.32,5-2.1-2.43A1,1,0,1,0,5.7,23Z"/></g></g></svg>